<svg aria-hidden="true" style="position: absolute; width: 0; height: 0; overflow: hidden;" version="1.1" xmlns="http://www.w3.org/2000/svg" xmlns:xlink="http://www.w3.org/1999/xlink">
<defs>
<symbol id="facebook" viewBox="0 0 17 32">
<path d="M13.767 5.313h3.075v-5.088c-0.529-0.069-2.354-0.225-4.478-0.225-4.434 0-7.471 2.65-7.471 7.519v4.481h-4.893v5.688h4.893v14.312h5.997v-14.312h4.695l0.746-5.688h-5.442v-3.919c0-1.644 0.466-2.769 2.877-2.769z"></path>
</symbol>
<symbol id="insta" viewBox="0 0 32 32">
<path d="M31.887 9.402c0.15 2.642 0.15 10.554 0 13.196-0.128 2.564-0.714 4.834-2.584 6.705-1.87 1.878-4.14 2.463-6.703 2.585-2.641 0.15-10.558 0.15-13.2 0-2.563-0.128-4.826-0.714-6.703-2.585s-2.463-4.141-2.584-6.705c-0.15-2.642-0.15-10.561 0-13.203 0.129-2.563 0.707-4.834 2.584-6.705s4.148-2.456 6.703-2.578c2.641-0.15 10.558-0.15 13.2 0 2.563 0.129 4.833 0.714 6.703 2.585 1.878 1.871 2.463 4.141 2.584 6.705zM24.542 9.374c-1.064 0-1.913-0.857-1.913-1.914s0.857-1.914 1.913-1.914c1.056 0 1.913 0.857 1.913 1.914 0 1.064-0.857 1.914-1.913 1.914zM16.004 7.796c-4.54 0-8.203 3.663-8.203 8.204s3.662 8.204 8.203 8.204c4.54 0 8.203-3.663 8.203-8.204s-3.662-8.204-8.203-8.204zM16.004 21.334c-2.934 0-5.333-2.392-5.333-5.334s2.392-5.334 5.333-5.334c2.941 0 5.333 2.392 5.333 5.334s-2.399 5.334-5.333 5.334zM25.434 28.474c1.406-0.564 2.484-1.642 3.041-3.042 0.716-1.801 0.677-5.739 0.651-8.293-0.004-0.423-0.008-0.809-0.008-1.14s0.004-0.717 0.008-1.14c0.026-2.552 0.066-6.486-0.651-8.293-0.564-1.407-1.642-2.485-3.041-3.042-1.806-0.713-5.763-0.675-8.315-0.65-0.414 0.004-0.791 0.008-1.116 0.008-0.331 0-0.716-0.004-1.14-0.008-2.551-0.026-6.484-0.066-8.291 0.651-1.406 0.564-2.484 1.642-3.041 3.042-0.713 1.806-0.675 5.764-0.65 8.316 0.004 0.414 0.008 0.791 0.008 1.116 0 0.331-0.004 0.717-0.008 1.14-0.026 2.552-0.066 6.486 0.651 8.293 0.564 1.407 1.642 2.485 3.041 3.042 1.806 0.713 5.763 0.675 8.315 0.65 0.414-0.004 0.791-0.008 1.116-0.008 0.331 0 0.716 0.004 1.14 0.008 2.551 0.026 6.485 0.066 8.291-0.651z"></path>
</symbol>
<symbol id="menu" viewBox="0 0 40 32">
<path d="M1.684 1.684h33.684v5.053h-33.684v-5.053zM1.684 11.789h33.684v5.053h-33.684v-5.053zM35.368 21.895h-33.684v5.053h33.684v-5.053z"></path>
</symbol>
<symbol id="search" viewBox="0 0 31 32">
<path fill="#fff" style="fill: var(--color1, #fff)" d="M4.612 4.617c2.080-2.080 4.845-3.226 7.787-3.226s5.708 1.146 7.787 3.226c4.029 4.028 4.278 10.427 0.748 14.748l5.174 5.174c0.435 0.435 0.435 1.139 0 1.574-0.217 0.217-0.502 0.326-0.787 0.326s-0.57-0.109-0.787-0.326l-5.174-5.174c-1.96 1.605-4.393 2.478-6.961 2.478-2.942 0-5.708-1.146-7.787-3.226-4.294-4.293-4.294-11.28 0-15.575l0 0zM6.186 18.618c1.66 1.66 3.866 2.573 6.213 2.573s4.553-0.914 6.213-2.573c3.426-3.426 3.426-9.001 0-12.426-1.66-1.659-3.866-2.573-6.213-2.573s-4.553 0.914-6.213 2.573c-3.426 3.427-3.426 9.001 0 12.426z"></path>
</symbol>
<symbol id="shape" viewBox="0 0 25 32">
<path d="M13.206 0.274c0.021-0.003 0.042-0.005 0.063-0.005l0 0h0.046c0.027 0 0.055 0.004 0.081 0.011 6.233 0.061 11.302 4.492 11.302 9.988 0 1.791-0.557 3.472-1.498 4.924v0.011c-0.010 0.022-0.021 0.043-0.035 0.065v-0.001c-0.002 0.003-0.004 0.005-0.007 0.007-0.001 0.001-0.003 0.002-0.004 0.004v0.011h-0.012c-0.003 0.012-0.007 0.023-0.011 0.034l-9.458 14.481c-0.073 0.112-0.204 0.18-0.346 0.18s-0.272-0.069-0.346-0.18l-9.574-14.481c-0.002-0.003-0.004-0.005-0.007-0.007-0.001-0.001-0.003-0.002-0.004-0.004-0.013-0.018-0.024-0.035-0.035-0.054-0.004-0.011-0.009-0.022-0.012-0.032v-0.011c-0.95-1.457-1.509-3.145-1.509-4.946 0-5.497 5.069-9.928 11.302-9.988 0.022 0 0.043-0.003 0.063-0.005zM19.467 10.666c0-3.199-2.778-5.797-6.198-5.797s-6.198 2.598-6.198 5.797 2.778 5.797 6.198 5.797c3.42 0 6.198-2.598 6.198-5.797z"></path>
</symbol>
<symbol id="snapchat" viewBox="0 0 34 32">
<path d="M33.702 25.086c-0.344 0.808-1.797 1.402-4.444 1.816-0.136 0.185-0.249 0.976-0.429 1.593-0.107 0.37-0.371 0.59-0.8 0.59l-0.020-0c-0.62 0-1.267-0.287-2.563-0.287-1.75 0-2.353 0.402-3.711 1.369-1.44 1.026-2.822 1.912-4.884 1.822-2.088 0.155-3.828-1.124-4.807-1.822-1.367-0.974-1.968-1.368-3.71-1.368-1.245 0-2.028 0.314-2.563 0.314-0.533 0-0.74-0.327-0.82-0.601-0.178-0.611-0.291-1.413-0.43-1.604-1.364-0.213-4.441-0.754-4.519-2.137-0.020-0.36 0.233-0.677 0.586-0.736 4.591-0.761 6.658-5.511 6.744-5.713 0.005-0.012 0.010-0.023 0.016-0.034 0.245-0.501 0.3-0.921 0.162-1.247-0.333-0.791-1.773-1.075-2.378-1.316-1.564-0.623-1.782-1.338-1.69-1.829 0.161-0.853 1.433-1.379 2.177-1.027 0.588 0.278 1.111 0.419 1.553 0.419 0.331 0 0.542-0.080 0.657-0.144-0.135-2.389-0.468-5.803 0.375-7.71 2.228-5.034 6.951-5.425 8.344-5.425 0.062 0 0.603-0.006 0.667-0.006 3.44 0 6.746 1.78 8.36 5.428 0.843 1.905 0.511 5.305 0.376 7.712 0.105 0.058 0.287 0.129 0.567 0.142 0.422-0.019 0.911-0.159 1.456-0.416 0.401-0.189 0.95-0.164 1.351 0.004l0.002 0.001c0.625 0.225 1.018 0.679 1.028 1.188 0.012 0.648-0.562 1.208-1.707 1.663-0.14 0.056-0.31 0.11-0.491 0.168-0.646 0.207-1.623 0.519-1.888 1.148-0.137 0.326-0.083 0.745 0.162 1.246 0.006 0.011 0.011 0.023 0.016 0.034 0.086 0.201 2.152 4.95 6.744 5.713 0.424 0.070 0.737 0.524 0.51 1.054z"></path>
</symbol>
<symbol id="twitter" viewBox="0 0 40 32">
<path d="M35.888 7.975c0.025 0.35 0.025 0.7 0.025 1.050 0 10.675-8.249 22.975-23.325 22.975-4.645 0-8.959-1.325-12.589-3.625 0.66 0.075 1.294 0.1 1.98 0.1 3.832 0 7.36-1.275 10.178-3.45-3.604-0.075-6.624-2.4-7.665-5.6 0.508 0.075 1.015 0.125 1.548 0.125 0.736 0 1.472-0.1 2.157-0.275-3.756-0.75-6.574-4-6.574-7.925v-0.1c1.091 0.6 2.36 0.975 3.706 1.025-2.208-1.45-3.655-3.925-3.655-6.725 0-1.5 0.406-2.875 1.117-4.075 4.036 4.9 10.102 8.1 16.904 8.45-0.127-0.6-0.203-1.225-0.203-1.85 0-4.45 3.655-8.075 8.198-8.075 2.36 0 4.492 0.975 5.99 2.55 1.853-0.35 3.629-1.025 5.203-1.95-0.609 1.875-1.904 3.45-3.604 4.45 1.65-0.175 3.249-0.625 4.721-1.25-1.117 1.6-2.513 3.025-4.112 4.175z"></path>
</symbol>
<symbol id="youtube" viewBox="0 0 45 32">
<path d="M39.903 0.957c1.927 0.527 3.446 2.079 3.961 4.050 0.936 3.572 0.936 11.025 0.936 11.025s0 7.453-0.936 11.025c-0.515 1.971-2.033 3.458-3.961 3.985-3.494 0.957-17.503 0.957-17.503 0.957s-14.009 0-17.503-0.957c-1.928-0.527-3.446-2.014-3.961-3.985-0.936-3.572-0.936-11.025-0.936-11.025s0-7.453 0.936-11.025c0.515-1.971 2.033-3.523 3.961-4.050 3.494-0.957 17.503-0.957 17.503-0.957s14.009 0 17.503 0.957zM17.818 9.265v13.534l11.709-6.767-11.709-6.767z"></path>
</symbol>
<symbol id="Aurora" viewBox="0 0 168 32">
<path d="M9.689 31.684l1.998-5.822h12.033l1.998 5.822h8.264l-11.761-31.684h-8.945l-11.761 31.684h8.173zM21.722 19.994h-8.037l4.041-11.735 3.996 11.735zM52.259 30.646c1.438-0.873 2.52-2.046 3.247-3.521v4.559h7.81v-25.185h-7.81v13.36c0 1.835-0.454 3.25-1.362 4.242s-2.149 1.489-3.723 1.489c-1.514 0-2.717-0.474-3.61-1.422s-1.339-2.279-1.339-3.994v-13.676h-7.719v14.623c0 3.37 0.855 6.018 2.565 7.944s4.019 2.888 6.925 2.888c1.907 0 3.58-0.436 5.018-1.309zM77.573 31.684h-7.765v-25.185h7.765v4.739c0.969-1.535 2.217-2.753 3.746-3.656s3.186-1.354 4.972-1.354v8.26h-2.225c-2.058 0-3.655 0.436-4.79 1.309s-1.703 2.347-1.703 4.423v11.464zM109.291 30.443c1.983-1.038 3.542-2.535 4.677-4.491s1.703-4.243 1.703-6.86c0-2.618-0.568-4.905-1.703-6.86s-2.694-3.453-4.677-4.491c-1.983-1.038-4.231-1.557-6.743-1.557s-4.768 0.519-6.766 1.557c-1.998 1.038-3.564 2.535-4.7 4.491s-1.703 4.243-1.703 6.86c0 2.618 0.568 4.904 1.703 6.86s2.702 3.453 4.7 4.491c1.998 1.038 4.253 1.557 6.766 1.557s4.76-0.519 6.743-1.557zM102.548 25.275c-1.483 0-2.732-0.527-3.746-1.58s-1.521-2.588-1.521-4.604c0-2.016 0.507-3.558 1.521-4.626s2.263-1.602 3.746-1.602 2.725 0.534 3.723 1.602c0.999 1.068 1.498 2.61 1.498 4.626s-0.499 3.55-1.498 4.604c-0.999 1.053-2.24 1.58-3.723 1.58zM128.612 20.22c0-2.076 0.568-3.551 1.703-4.423s2.732-1.309 4.791-1.309h2.225v-8.26c-1.786 0-3.443 0.451-4.972 1.354s-2.777 2.121-3.746 3.656v-4.739h-7.765v25.185h7.765v-11.464zM151.361 32c-2.089 0-3.958-0.519-5.608-1.557s-2.952-2.535-3.905-4.491-1.43-4.243-1.43-6.86c0-2.648 0.477-4.942 1.43-6.883s2.255-3.43 3.905-4.468c1.65-1.038 3.519-1.557 5.608-1.557 1.938 0 3.602 0.436 4.995 1.309s2.422 2.061 3.088 3.566v-4.559h7.719v25.185h-7.719v-4.559c-0.666 1.505-1.695 2.693-3.088 3.566s-3.057 1.309-4.995 1.309zM149.84 23.605c1.014 1.083 2.354 1.625 4.019 1.625 1.635 0 2.974-0.557 4.019-1.67s1.566-2.603 1.566-4.468c0-1.896-0.522-3.393-1.566-4.491s-2.384-1.647-4.019-1.647c-1.665 0-3.004 0.542-4.019 1.625s-1.521 2.588-1.521 4.513c0 1.926 0.507 3.43 1.521 4.513z"></path>
</symbol>
<symbol id="basket" viewBox="0 0 23 32">
<path fill="#fff" style="fill: var(--color1, #fff)" d="M10.286 1.143c-1.246 0.001-2.441 0.505-3.324 1.403-0.882 0.897-1.378 2.115-1.38 3.385v2.332h-3.827c-0.338 0-0.612 0.279-0.612 0.623v15.946c0 2.066 1.644 3.74 3.671 3.74h10.945c2.026 0 3.671-1.674 3.671-3.74v-15.946c0-0.166-0.065-0.324-0.179-0.441s-0.27-0.183-0.433-0.183h-3.827v-2.332c-0.002-1.27-0.498-2.487-1.38-3.385-0.883-0.897-2.078-1.401-3.324-1.403h0zM6.805 5.93c0-1.959 1.558-3.547 3.481-3.547s3.481 1.588 3.481 3.547v2.332h-6.961v-2.332zM18.205 9.508v15.323c0 0.661-0.258 1.295-0.717 1.763s-1.081 0.73-1.73 0.73h-10.945c-1.351 0-2.447-1.116-2.447-2.494v-15.323h3.215v3.372c0 0.345 0.274 0.623 0.612 0.623 0.337 0 0.612-0.279 0.612-0.623v-3.372h6.961v3.372c0 0.345 0.275 0.623 0.612 0.623 0.338 0 0.612-0.279 0.612-0.623v-3.372h3.215z"></path>
</symbol>
<symbol id="right" viewBox="0 0 21 32">
<path d="M1.84 4.064l12.329 11.937-12.329 11.937 1.835 1.778 14.165-13.714-14.165-13.714-1.835 1.778z"></path>
</symbol>
<symbol id="down" viewBox="0 0 52 32">
<path d="M46.889 2l-20.889 21.576-20.889-21.576-3.111 3.211 24 24.789 24-24.789-3.111-3.211z"></path>
</symbol>
<symbol id="close" viewBox="0 0 34 32">
<path d="M1.985 31.625c0.5 0.5 1.31 0.5 1.81 0l13.815-13.815 13.815 13.815c0.5 0.5 1.31 0.5 1.81 0s0.5-1.31 0-1.81l-13.815-13.815 13.815-13.815c0.5-0.5 0.5-1.31 0-1.81s-1.31-0.5-1.81 0l-13.815 13.815-13.815-13.815c-0.5-0.5-1.31-0.5-1.81 0s-0.5 1.31 0 1.81l13.815 13.815-13.815 13.815c-0.5 0.5-0.5 1.31 0 1.81z"></path>
</symbol>
<symbol id="location" viewBox="0 0 32 32">
<path d="M16 0c-5.523 0-10 4.477-10 10 0 10 10 22 10 22s10-12 10-22c0-5.523-4.477-10-10-10zM16 16c-3.314 0-6-2.686-6-6s2.686-6 6-6 6 2.686 6 6-2.686 6-6 6z"></path>
</symbol>
<symbol id="search" viewBox="0 0 32 32">
<path d="M31.008 27.231l-7.58-6.447c-0.784-0.705-1.622-1.029-2.299-0.998 1.789-2.096 2.87-4.815 2.87-7.787 0-6.627-5.373-12-12-12s-12 5.373-12 12 5.373 12 12 12c2.972 0 5.691-1.081 7.787-2.87-0.031 0.677 0.293 1.515 0.998 2.299l6.447 7.58c1.104 1.226 2.907 1.33 4.007 0.23s0.997-2.903-0.23-4.007zM12 20c-4.418 0-8-3.582-8-8s3.582-8 8-8 8 3.582 8 8-3.582 8-8 8z"></path>
</symbol>
<symbol id="cross" viewBox="0 0 32 32">
<path d="M31.708 25.708c-0-0-0-0-0-0l-9.708-9.708 9.708-9.708c0-0 0-0 0-0 0.105-0.105 0.18-0.227 0.229-0.357 0.133-0.356 0.057-0.771-0.229-1.057l-4.586-4.586c-0.286-0.286-0.702-0.361-1.057-0.229-0.13 0.048-0.252 0.124-0.357 0.228 0 0-0 0-0 0l-9.708 9.708-9.708-9.708c-0-0-0-0-0-0-0.105-0.104-0.227-0.18-0.357-0.228-0.356-0.133-0.771-0.057-1.057 0.229l-4.586 4.586c-0.286 0.286-0.361 0.702-0.229 1.057 0.049 0.13 0.124 0.252 0.229 0.357 0 0 0 0 0 0l9.708 9.708-9.708 9.708c-0 0-0 0-0 0-0.104 0.105-0.18 0.227-0.229 0.357-0.133 0.355-0.057 0.771 0.229 1.057l4.586 4.586c0.286 0.286 0.702 0.361 1.057 0.229 0.13-0.049 0.252-0.124 0.357-0.229 0-0 0-0 0-0l9.708-9.708 9.708 9.708c0 0 0 0 0 0 0.105 0.105 0.227 0.18 0.357 0.229 0.356 0.133 0.771 0.057 1.057-0.229l4.586-4.586c0.286-0.286 0.362-0.702 0.229-1.057-0.049-0.13-0.124-0.252-0.229-0.357z"></path>
</symbol>
</defs>
</svg>
